PathFileType	4	(X/Y/Z)	C:/Users/beibeiliu/ov580/test_trc/User2\sequence.6_training_dense_left.trc
DataRate	CameraRate	NumFrames	NumMarkers	Units	OrigDataRate	OrigDataStartFrame	OrigNumFrames
120	120	22	19	mm	120	48	381
Frame#	Time	ThumbCMC			ThumbMCP			ThumbIP			ThumbTip			IndexMCP			IndexPIP			IndexTip			MiddleMCP			MiddlePIP			MiddleTip			RingMCP			RingPIP			RingTip			PinkyMCP			PinkyPIP			PinkyTip			BackHand1			BackHand2			BackHand3	
		X0	Y0	Z0	X1	Y1	Z1	X2	Y2	Z2	X3	Y3	Z3	X4	Y4	Z4	X5	Y5	Z5	X6	Y6	Z6	X7	Y7	Z7	X8	Y8	Z8	X9	Y9	Z9	X10	Y10	Z10	X11	Y11	Z11	X12	Y12	Z12	X13	Y13	Z13	X14	Y14	Z14	X15	Y15	Z15	X16	Y16	Z16	X17	Y17	Z17	X18	Y18	Z18	
47	0.391667	-156.991	65.6873	95.9707	-127.997	48.2256	80.0738	-102.689	31.2324	56.7085	-97.1559	6.17816	45.8755	-185.543	41.7557	20.3526	-172.918	34.1292	-4.74095	-140.372	18.9927	-11.0376	-176.645	8.94543	26.458	-141.416	-7.18032	17.6526	-112.953	0.63782	44.1576	-167.152	-14.773	38.8871	-137.699	-16.9301	37.9789	-116.637	-4.72719	66.4728	-168.901	-24.738	60.3689	-135.132	-23.1759	63.3822	-129.096	0.148812	85.5895	-205.818	12.506	90.621	-213.651	26.4888	116.917	-202.697	53.0735	91.7842	
48	0.4	-148.653	60.9362	100.99	-124.245	37.221	82.3094	-104.534	15.4892	57.217	-112.027	-10.9799	45.5216	-182.25	49.2753	24.365	-175.582	35.9408	-4.65145	-151.283	13.8073	-14.3979	-181.723	12.6622	26.999	-149.418	-7.96943	16.982	-122.485	-9.47049	46.3103	-180.827	-6.15974	39.5164	-151.965	-25.7739	39.4366	-128.859	-12.3146	66.4014	-183.501	-25.3331	58.1929	-150.011	-28.0998	62.3454	-139.829	-11.0194	82.9264	-211.544	23.561	90.4311	-212.878	35.9872	117.304	-196.344	58.5127	95.8786	
49	0.408333	-138.389	52.3872	98.5903	-124.041	25.5507	82.0492	-114.186	0.177045	57.8423	-125.027	-23.3198	41.7595	-177.989	54.0202	24.7109	-174.902	42.371	-5.16499	-161.767	18.5006	-19.6574	-184.271	18.8029	24.9748	-162.69	-10.8737	18.4938	-139.222	-22.0183	51.7743	-192.005	-2.96025	37.7274	-166.259	-24.9077	38.0407	-145.532	-25.1262	66.5415	-200.411	-11.2716	58.9193	-170.466	-28.6501	58.4607	-152.455	-17.3481	85.4963	-211.715	36.7749	87.3131	-206.985	48.4913	119.566	-185.142	65.1799	95.7496	
50	0.416667	-135.643	44.9515	104.336	-125.825	14.9314	80.2421	-124.636	-10.8813	57.6405	-138.628	-31.4568	39.5125	-169.935	57.358	30.445	-178.172	49.4729	-2.87618	-172.336	31.2193	-25.1209	-187.216	23.0284	26.7719	-172.921	-11.1468	19.3779	-155.336	-25.8794	50.4911	-199.418	6.18779	38.7332	-181.433	-25.0064	39.9591	-159.445	-25.7735	69.9615	-210.359	-7.06322	56.681	-188.141	-29.8885	59.3136	-166.481	-19.3848	80.9718	-209.422	46.5253	90.4954	-206.78	56.0359	120.429	-178.304	67.6555	96.8728	
51	0.425	-134.475	39.22	104.234	-126.246	7.5987	80.8367	-134.673	-17.2653	57.3344	-155.922	-34.0461	38.9971	-170.293	57.4128	28.7103	-175.077	54.2983	-1.17851	-180.032	41.9429	-29.481	-189.128	26.027	27.4687	-179.111	-7.15294	18.1858	-162.491	-25.2637	56.7979	-201.934	10.692	38.0194	-188.072	-20.1603	38.8365	-172.207	-26.6029	68.5775	-219.942	0.973447	59.3076	-195.065	-25.3407	59.8582	-175.834	-14.9079	81.2608	-206.257	51.7214	89.2479	-203.947	59.2357	122.694	-171.668	69.5003	96.1017	
52	0.433333	-139.436	37.4282	101.019	-132.993	6.85123	81.7087	-142.064	-21.1343	50.5799	-165.364	-33.2516	40.6768	-172.139	56.41	29.5313	-176.647	55.3506	1.19193	-183.638	50.273	-27.7157	-194.098	25.191	24.9712	-184.624	-7.14178	19.0799	-166.03	-22.7604	53.0099	-209.945	13.0679	41.7718	-195.301	-17.4736	39.2731	-177.115	-24.7682	70.3717	-222.692	4.39023	59.4809	-200.763	-22.6756	61.039	-179.698	-17.0839	87.1148	-205.713	53.7027	88.6577	-202.805	64.1654	125.186	-170.188	69.3995	93.9771	
53	0.441667	-136.848	35.5962	101.881	-136.644	3.27159	75.6516	-147.106	-23.0492	51.2515	-170.943	-32.8519	43.0438	-171.607	56.3544	29.2778	-176.075	55.4144	-0.0728304	-181.443	54.1674	-24.2252	-192.244	27.8315	24.2998	-188.294	-9.09235	21.3272	-172.787	-22.7272	54.8535	-207.872	15.4605	38.6031	-201.788	-15.1675	39.8217	-180.494	-24.3559	65.8532	-222.91	9.79091	58.7022	-204.376	-19.3875	59.4188	-183.101	-18.1399	82.8055	-207.956	58.6884	93.2152	-199.46	66.7249	122.776	-167.597	69.994	93.0901	
54	0.45	-139.153	33.114	97.3194	-140.291	1.94648	78.9074	-152.489	-24.4314	53.8014	-176.993	-33.8369	45.3042	-173.781	54.1849	28.1453	-179.886	52.9329	-2.71037	-186.059	50.237	-24.3017	-199.64	28.4509	28.143	-192.737	-9.15228	23.3928	-175.934	-23.3973	55.8773	-215.341	16.1262	43.0386	-207.527	-17.4995	43.4974	-185.446	-24.403	67.8815	-226.328	8.56336	59.8333	-210.11	-19.5691	61.8541	-187.478	-16.9483	83.9454	-207.815	59.5126	91.5727	-199.246	65.6587	125.165	-166.872	67.3976	94.8224	
55	0.458333	-142.328	30.5688	100.226	-144.446	-2.81432	78.2316	-160.361	-25.6216	58.5262	-184.209	-38.1443	44.8496	-176.84	50.6421	30.9483	-185.178	45.1518	0.893723	-194.244	37.7992	-24.1992	-199.88	28.3016	29.2166	-197.657	-10.0798	24.1399	-185.898	-25.3072	56.7668	-215.587	19.7173	44.3069	-211.513	-17.9882	45.2509	-191.555	-26.2853	70.0601	-231.461	11.7287	63.7924	-216.739	-17.1636	63.0019	-192.557	-18.5144	90.3704	-203.952	59.7484	92.7064	-194.682	68.4839	122.28	-166.642	69.0047	97.5997	
56	0.466667	-142.51	27.9749	98.6889	-146.332	-5.83028	79.9331	-162.37	-30.6931	58.875	-187.019	-41.1096	49.226	-178.998	47.426	28.9085	-188.65	37.8745	1.8171	-198.752	21.5722	-18.7498	-203.908	25.8684	29.7272	-204.807	-12.0265	29.0887	-189.817	-26.0222	63.0589	-219.446	19.0412	47.4996	-216.866	-17.5553	48.3488	-193.924	-27.0675	73.3704	-231.712	16.0508	67.8109	-222.593	-16.2419	65.7879	-198.743	-20.9101	91.4987	-209.254	60.0967	91.3561	-196.362	70.8743	126.413	-165.981	64.7439	93.8788	
57	0.475	-144.904	26.7107	103.789	-150.874	-5.762	84.6961	-171.328	-30.2195	63.3184	-193.628	-39.2497	55.2136	-183.056	43.3058	28.1159	-196.934	30.994	4.15804	-204.916	4.39422	-10.9237	-208.991	24.7576	32.637	-211.755	-10.0216	29.3586	-193.327	-27.5367	65.241	-223.64	14.412	46.8129	-220.426	-17.5178	48.259	-201.494	-28.7329	72.9779	-236.486	14.2292	70.4747	-226.889	-20.4646	72.3075	-203.859	-24.8672	93.5554	-209.265	58.1637	95.967	-193.164	70.028	124.053	-168.368	64.6973	97.0696	
58	0.483333	-143.614	23.8078	103.188	-155.581	-8.18969	85.6643	-171.628	-32.3981	66.7028	-199.267	-40.8273	55.7452	-184.466	42.71	31.8816	-198.07	29.0742	5.9952	-207.286	-5.39943	-3.99813	-211.365	25.6532	36.4911	-213.697	-14.1882	33.8193	-196.177	-29.4625	65.5423	-227.248	17.6917	51.0038	-225.572	-17.2083	51.9626	-205.77	-29.1181	74.6682	-240.007	14.0193	72.4067	-229.907	-17.7671	72.4206	-204.95	-23.295	95.8798	-207.204	58.4591	92.8989	-195.475	69.2131	126.989	-170.661	63.826	96.1318	
59	0.491667	-145.143	21.9574	104.142	-158.871	-10.3282	86.3608	-176.97	-33.8579	67.7887	-204.877	-40.0636	59.2144	-185.241	41.8464	27.2909	-196.238	24.7218	1.81042	-207.124	-2.23898	-1.88122	-215.466	24.0541	35.2108	-217.629	-10.8365	31.4196	-204.052	-29.1431	65.4122	-230.545	15.2971	50.7763	-226.011	-17.3117	52.8467	-206.741	-29.8003	81.2644	-241.112	16.0139	75.5878	-231.538	-19.9525	76.7719	-209.525	-22.0956	94.4164	-211.618	60.0995	99.9379	-197.931	70.1403	127.596	-168.094	62.9993	95.6554	
60	0.5	-147.028	21.4728	104.083	-161.446	-10.2701	87.4414	-182.512	-36.5488	65.9588	-207.274	-40.21	60.3685	-185.376	41.9637	33.5351	-197.85	29.5052	4.66919	-210.316	-3.06724	-6.73844	-212.816	25.2196	34.6906	-220.9	-9.1674	32.327	-202.51	-31.9707	64.3497	-232.388	16.9888	52.3595	-231.972	-16.4733	55.5074	-210.417	-28.7479	78.6497	-242.067	16.4161	74.7866	-237.2	-17.2624	76.7265	-213.24	-26.0468	95.4548	-211.088	59.4009	95.3338	-195.417	69.5859	128.915	-174.03	61.559	98.6258	
61	0.508333	-149.793	18.7938	103.55	-163.679	-14.4372	88.3248	-183.481	-38.7891	70.3895	-212.245	-45.2447	59.3752	-187.756	41.1768	33.7237	-197.797	30.011	3.42957	-206.217	4.81535	-15.0242	-215.981	23.1403	35.2178	-223.62	-12.7694	35.5044	-207.684	-32.1211	65.8304	-236.2	17.8553	55.544	-233.799	-15.844	55.3241	-215.083	-28.7662	84.1597	-248.37	15.5334	75.7071	-239.046	-17.5385	77.0977	-214.509	-22.5706	94.9953	-213.835	59.0383	96.076	-198.056	68.2703	126.253	-169.008	62.3429	98.0271	
62	0.516667	-152.218	17.5333	104.994	-169.207	-15.8553	86.8625	-187.891	-37.6174	72.965	-216.87	-43.7285	61.1729	-187.728	39.1601	29.5393	-194.672	31.1926	3.49442	-208.497	12.1253	-20.6958	-217.627	24.27	36.6529	-224.269	-14.0514	34.362	-214.125	-32.3083	66.8499	-238.17	16.2632	54.2701	-236.267	-14.9325	54.2894	-215.872	-27.636	84.9024	-248.849	17.3884	75.9762	-242.475	-16.6297	78.0616	-216.479	-23.5624	98.3609	-210.523	61.5134	99.0422	-196.271	68.0077	126.225	-172.399	60.0162	97.7759	
63	0.525	-156.547	17.0177	103.955	-171.375	-15.6994	87.1042	-192.998	-36.8617	70.6772	-221.06	-42.4147	61.5247	-188.968	39.033	30.2233	-196.639	32.4771	1.30382	-205.822	22.347	-24.4313	-222.703	24.3082	36.1991	-229.098	-10.1422	33.0047	-213.814	-31.3168	64.0899	-238.868	20.0078	55.1508	-238.555	-14.6248	55.6812	-220.192	-25.7407	83.7258	-248.963	20.4596	75.8608	-245.98	-15.057	78.5904	-216.7	-19.1848	95.6157	-211.932	60.2417	97.6559	-201.751	70.5758	129.699	-174.174	60.5967	95.1947	
64	0.533333	-161.619	18.3542	102.212	-173.936	-15.8411	87.8498	-199.343	-38.1719	65.037	-225.494	-40.0854	60.8086	-192.36	41.635	28.1046	-198.317	37.0349	0.148176	-203.812	31.7275	-22.4164	-222.713	27.88	34.3029	-233.164	-9.46219	33.7692	-219.249	-28.8646	65.2665	-244.689	20.7779	53.4895	-243.79	-11.5257	55.3339	-220.814	-22.0996	82.855	-250.879	20.6139	74.4299	-246.627	-13.2608	77.6522	-223.104	-17.2359	99.401	-215.775	62.1678	98.1413	-201.677	68.5536	128.32	-175.922	58.5934	96.8114	
65	0.541667	-164.362	16.2073	101.216	-182.653	-15.5594	82.0887	-203.156	-35.8973	68.6705	-231.416	-38.6745	57.9667	-192.706	44.1732	32.3514	-203.38	41.2578	2.32306	-211.881	40.2255	-24.5607	-225.858	30.5737	33.9256	-240.178	-4.68822	33.9504	-229.842	-25.3157	63.3966	-243.72	22.7343	51.5228	-246.303	-9.156	56.3238	-227.288	-18.972	84.1329	-254.997	21.62	72.9155	-252.138	-9.71754	80.3906	-222.936	-11.7192	96.4115	-216.008	63.0627	99.9777	-205.001	71.6042	126.511	-179.055	60.8622	98.1783	
66	0.55	-167.233	13.3914	99.7111	-184.567	-17.6567	83.1185	-210.714	-36.0995	65.4839	-238.936	-39.4846	55.7217	-197.517	44.7134	32.7583	-209.696	43.6774	4.55924	-222.222	41.4163	-21.5385	-233.231	32.4512	35.3218	-243.769	-0.407962	30.0163	-232.707	-24.2022	64.8159	-250.079	25.011	53.5506	-255.504	-6.61012	58.4179	-233.073	-17.6265	82.1106	-260.035	28.3039	76.8407	-255.746	-5.60381	78.8431	-232.596	-9.65493	101.363	-216.897	65.1042	99.455	-205.37	69.5045	126.951	-179.603	60.0963	97.5391	
67	0.558333	-170.703	12.5184	97.5997	-191.024	-17.7201	84.3521	-216.708	-38.1946	65.3306	-247.048	-35.346	60.0024	-209.453	44.7184	34.062	-222.908	42.1746	7.66467	-239.398	37.1018	-15.7366	-239.731	32.609	39.5838	-253.367	-2.14063	37.0845	-241.269	-23.2382	67.26	-256.024	26.6222	56.4172	-259.049	-6.66213	62.4746	-235.838	-15.2766	86.3231	-266.782	25.6197	77.9893	-260.919	-6.70368	84.1856	-233.018	-6.02486	102.372	-221.222	66.7229	99.263	-206.035	69.0692	125.289	-183.389	58.5238	95.6493	
68	0.566667	-174.778	11.9811	98.1176	-195.556	-19.4534	84.9536	-220.582	-36.4811	71.0405	-251.85	-39.5639	63.5306	-220.156	42.6327	32.3398	-242.063	37.7002	8.28284	-262.755	25.0786	-4.28519	-248.348	31.1006	41.323	-262.09	-2.06569	41.7868	-244.871	-24.9488	69.132	-260.856	26.5104	59.0891	-266.091	-6.42059	65.2451	-244.706	-16.2786	90.3084	-273.392	26.3255	83.4204	-265.197	-7.22948	86.568	-237.493	-8.01197	101.605	-227.115	64.7211	96.4297	-210.575	72.6152	126.198	-190.412	57.5198	94.0794	
